/* XPM */
static char * floor_xpm[] = {
"64 64 440 2",
"  	c #8A8371",
". 	c #AFA693",
"+ 	c #AEA38E",
"@ 	c #AFA48F",
"# 	c #AEA590",
"$ 	c #AEA690",
"% 	c #ACA38D",
"& 	c #ADA38D",
"* 	c #AFA590",
"= 	c #AFA791",
"- 	c #B0A892",
"; 	c #B1A993",
"> 	c #B2AA94",
", 	c #B2A994",
"' 	c #B3AB95",
") 	c #AAA38D",
"! 	c #645E4E",
"~ 	c #ADA58F",
"{ 	c #ADA48E",
"] 	c #AEA58F",
"^ 	c #ACA28D",
"/ 	c #AFA690",
"( 	c #B0A791",
"_ 	c #B1A893",
": 	c #B3AA95",
"< 	c #645F51",
"[ 	c #A69D89",
"} 	c #AEA48E",
"| 	c #B3AC96",
"1 	c #8F8774",
"2 	c #9F9681",
"3 	c #B8AB92",
"4 	c #B7AB91",
"5 	c #B5AA90",
"6 	c #B7AC92",
"7 	c #B6AB91",
"8 	c #B5AB90",
"9 	c #B4A98F",
"0 	c #B6AA90",
"a 	c #B1A68C",
"b 	c #7D7564",
"c 	c #B4A88E",
"d 	c #706857",
"e 	c #B9AD96",
"f 	c #B6AB90",
"g 	c #B7AC91",
"h 	c #B5A98F",
"i 	c #988D79",
"j 	c #A19681",
"k 	c #B7AA90",
"l 	c #B0A58B",
"m 	c #7D7763",
"n 	c #B9AB92",
"o 	c #B7AB90",
"p 	c #6F6957",
"q 	c #B9AD94",
"r 	c #988E78",
"s 	c #A09580",
"t 	c #7C7662",
"u 	c #B8AA91",
"v 	c #706A58",
"w 	c #B7AC93",
"x 	c #998F79",
"y 	c #9F947F",
"z 	c #B3A78E",
"A 	c #7B7561",
"B 	c #746D5C",
"C 	c #9B917B",
"D 	c #9F937E",
"E 	c #B3A88E",
"F 	c #77715E",
"G 	c #B9AC93",
"H 	c #B3A78D",
"I 	c #76705E",
"J 	c #B4A98E",
"K 	c #9C927C",
"L 	c #B6A98F",
"M 	c #78725E",
"N 	c #756F5D",
"O 	c #B6AB92",
"P 	c #9C917B",
"Q 	c #B7AA91",
"R 	c #7A7461",
"S 	c #B2A68C",
"T 	c #746D5B",
"U 	c #9C917C",
"V 	c #76705D",
"W 	c #B7A990",
"X 	c #B6AA8F",
"Y 	c #B4A88F",
"Z 	c #998E78",
"` 	c #625B4C",
" .	c #736C5B",
"..	c #766E5D",
"+.	c #776F5E",
"@.	c #776F5D",
"#.	c #766E5C",
"$.	c #716957",
"%.	c #766D5C",
"&.	c #78705F",
"*.	c #4F4A3E",
"=.	c #736B5A",
"-.	c #776E5D",
";.	c #736A59",
">.	c #746C5A",
",.	c #4F4B3E",
"'.	c #706959",
").	c #756D5C",
"!.	c #746C5B",
"~.	c #716958",
"{.	c #77705E",
"].	c #79705F",
"^.	c #78715F",
"/.	c #635D4E",
"(.	c #BFB59B",
"_.	c #C1B79D",
":.	c #C2B79E",
"<.	c #C3B89E",
"[.	c #C4B99F",
"}.	c #C5B9A0",
"|.	c #C4B8A0",
"1.	c #C6BBA3",
"2.	c #C6BBA2",
"3.	c #C6BAA2",
"4.	c #756C5B",
"5.	c #BCB19A",
"6.	c #C1B69D",
"7.	c #C1B69C",
"8.	c #C2B79D",
"9.	c #C0B59C",
"0.	c #BFB59C",
"a.	c #C1B59E",
"b.	c #C3B79E",
"c.	c #C4B89F",
"d.	c #C4B9A0",
"e.	c #C4B9A1",
"f.	c #C6BAA3",
"g.	c #A09683",
"h.	c #9F9482",
"i.	c #C3B79F",
"j.	c #C2B69D",
"k.	c #BFB49C",
"l.	c #C0B59D",
"m.	c #C5BAA2",
"n.	c #C5B9A2",
"o.	c #BDB39C",
"p.	c #756D5F",
"q.	c #C1B59C",
"r.	c #B5AA8F",
"s.	c #B7AC90",
"t.	c #706855",
"u.	c #BAAE94",
"v.	c #B6AA91",
"w.	c #B5A98E",
"x.	c #B5AA8E",
"y.	c #978F78",
"z.	c #A09781",
"A.	c #B6AB8F",
"B.	c #B1A68B",
"C.	c #7D7664",
"D.	c #B8AC90",
"E.	c #B5A990",
"F.	c #716856",
"G.	c #978E78",
"H.	c #A09681",
"I.	c #7D7563",
"J.	c #B8AB91",
"K.	c #726A58",
"L.	c #9E947F",
"M.	c #B2A78D",
"N.	c #7C7463",
"O.	c #B9AC94",
"P.	c #9B927C",
"Q.	c #9F9580",
"R.	c #7C7464",
"S.	c #B7AB92",
"T.	c #776E5C",
"U.	c #9C927D",
"V.	c #B9AC92",
"W.	c #766D5B",
"X.	c #9A917B",
"Y.	c #7B7362",
"Z.	c #746B59",
"`.	c #99907A",
" +	c #9D937E",
".+	c #797160",
"++	c #B4A78E",
"@+	c #B6A990",
"#+	c #B5A88F",
"$+	c #B5A88E",
"%+	c #B3A78F",
"&+	c #6E6654",
"*+	c #AFA38B",
"=+	c #B2A68D",
"-+	c #B3A88D",
";+	c #B1A88D",
">+	c #938A75",
",+	c #968C79",
"'+	c #B2A78C",
")+	c #B1A78D",
"!+	c #AEA28A",
"~+	c #736B5B",
"{+	c #B1A58B",
"]+	c #726C5E",
"^+	c #8F8678",
"/+	c #8B8374",
"(+	c #8C8374",
"_+	c #8C8475",
":+	c #8E8576",
"<+	c #8E8677",
"[+	c #8D8576",
"}+	c #827B6C",
"|+	c #898172",
"1+	c #8D8577",
"2+	c #8F8677",
"3+	c #8F8778",
"4+	c #575347",
"5+	c #8D8677",
"6+	c #857E6E",
"7+	c #867F70",
"8+	c #8F8777",
"9+	c #595449",
"0+	c #867F6F",
"a+	c #8A8272",
"b+	c #847D6F",
"c+	c #8C8474",
"d+	c #8F8779",
"e+	c #736E60",
"f+	c #9E957F",
"g+	c #BBAE95",
"h+	c #BBAF95",
"i+	c #BAAE95",
"j+	c #B9AD93",
"k+	c #BCB096",
"l+	c #BDB197",
"m+	c #BEB298",
"n+	c #787160",
"o+	c #BCAE96",
"p+	c #B8AC92",
"q+	c #BCB097",
"r+	c #BDB298",
"s+	c #726A59",
"t+	c #B8AD93",
"u+	c #7D7764",
"v+	c #B9AE94",
"w+	c #7C7663",
"x+	c #7B7562",
"y+	c #B7AA92",
"z+	c #726C5A",
"A+	c #9A907A",
"B+	c #7A7462",
"C+	c #B9AB93",
"D+	c #766F5E",
"E+	c #9D927D",
"F+	c #756F5B",
"G+	c #A0947F",
"H+	c #746E5C",
"I+	c #716B59",
"J+	c #9D937D",
"K+	c #B1A68D",
"L+	c #787260",
"M+	c #B4A990",
"N+	c #807863",
"O+	c #9B8F79",
"P+	c #9C927B",
"Q+	c #9D927C",
"R+	c #9D937B",
"S+	c #9C927A",
"T+	c #9C917A",
"U+	c #9D927B",
"V+	c #9B917A",
"W+	c #9B907A",
"X+	c #9E937C",
"Y+	c #9D937C",
"Z+	c #978D78",
"`+	c #605A4B",
" @	c #9D927A",
".@	c #9E937D",
"+@	c #5F584A",
"@@	c #968C76",
"#@	c #807866",
"$@	c #A59D88",
"%@	c #A89F8A",
"&@	c #A9A08B",
"*@	c #AAA18C",
"=@	c #ABA28D",
"-@	c #ACA38E",
";@	c #ACA38F",
">@	c #ACA28F",
",@	c #625B4D",
"'@	c #9F9782",
")@	c #A79E8A",
"!@	c #A79E89",
"~@	c #A89F8B",
"{@	c #A69D88",
"]@	c #A59D87",
"^@	c #898271",
"/@	c #857D6C",
"(@	c #A99F8A",
"_@	c #A89E8A",
":@	c #A69D87",
"<@	c #ABA28E",
"[@	c #AAA18D",
"}@	c #A49B88",
"|@	c #5F594B",
"1@	c #A99F8B",
"2@	c #A89F8C",
"3@	c #A69C88",
"4@	c #706856",
"5@	c #BAAD94",
"6@	c #988E79",
"7@	c #7E7565",
"8@	c #726957",
"9@	c #A09680",
"0@	c #756C5A",
"a@	c #7C7363",
"b@	c #B5A991",
"c@	c #B8AB93",
"d@	c #9E947E",
"e@	c #79715F",
"f@	c #B8AC91",
"g@	c #756D5B",
"h@	c #B3A98E",
"i@	c #7A7362",
"j@	c #9B917C",
"k@	c #B1A78C",
"l@	c #77705F",
"m@	c #78715E",
"n@	c #B7A991",
"o@	c #756E5C",
"p@	c #79715E",
"q@	c #78705E",
"r@	c #4B4538",
"s@	c #77705D",
"t@	c #635B4E",
"u@	c #766F5D",
"v@	c #736C5A",
"w@	c #4A4538",
"x@	c #C1B79E",
"y@	c #C2B69E",
"z@	c #C2B69F",
"A@	c #C0B49C",
"B@	c #C3B89F",
"C@	c #C4BAA0",
"D@	c #C5BBA1",
"E@	c #C6BAA1",
"F@	c #BDB39A",
"G@	c #736D5C",
"H@	c #C3B69E",
"I@	c #C0B49B",
"J@	c #C3B99F",
"K@	c #C6BBA1",
"L@	c #726B5C",
"M@	c #BCB099",
"N@	c #C5BAA1",
"O@	c #A19781",
"P@	c #B6AC91",
"Q@	c #6F6857",
"R@	c #B9AE95",
"S@	c #6F6858",
"T@	c #B8AC94",
"U@	c #7B7563",
"V@	c #716A5A",
"W@	c #B6AB93",
"X@	c #7B7662",
"Y@	c #756E5D",
"Z@	c #B8AC93",
"`@	c #9E937E",
" #	c #76705C",
".#	c #78725F",
"+#	c #9B907C",
"@#	c #B6A88F",
"##	c #B2A58C",
"$#	c #B6A78F",
"%#	c #988E7A",
"&#	c #B1A78E",
"*#	c #AEA38A",
"=#	c #746E5B",
"-#	c #B3A68D",
";#	c #6D6656",
">#	c #AFA48C",
",#	c #958B76",
"'#	c #7C7565",
")#	c #837D6C",
"!#	c #847D6C",
"~#	c #847E6D",
"{#	c #857F6D",
"]#	c #857F6E",
"^#	c #85806E",
"/#	c #5A5446",
"(#	c #7F7868",
"_#	c #837C6B",
":#	c #827C6B",
"<#	c #847D6D",
"[#	c #857E6D",
"}#	c #807A69",
"|#	c #777262",
"1#	c #827B6A",
"2#	c #6F695A",
"3#	c #6E6759",
"4#	c #777162",
"5#	c #807A68",
"6#	c #595445",
"7#	c #7B7565",
"8#	c #BDB198",
"9#	c #BEB299",
"0#	c #BEB399",
"a#	c #BEB39A",
"b#	c #BFB49A",
"c#	c #BFB499",
"d#	c #736B59",
"e#	c #BAAF97",
"f#	c #BCB197",
"g#	c #BFB39A",
"h#	c #BFB399",
"i#	c #BDB299",
"j#	c #9D937F",
"k#	c #BFB49B",
"l#	c #B8AE93",
"m#	c #BEB198",
"n#	c #7E7764",
"o#	c #7C7462",
"p#	c #736A58",
"q#	c #988F79",
"r#	c #A0967E",
"s#	c #A0957E",
"t#	c #A1977F",
"u#	c #A29780",
"v#	c #A1967F",
"w#	c #625B4B",
"x#	c #9B907B",
"y#	c #9F947D",
"z#	c #9F957D",
"A#	c #A19780",
"B#	c #847B68",
"C#	c #847B69",
"D#	c #A0967F",
"E#	c #9B927B",
"F#	c #655D4F",
"G#	c #9F957E",
"  . + @ @ @ # $ $ $ % & * = - ; > , ' ' ) ! # ~ { @ + ] $ $ $ ^ & # / ( _ > ; ' ' : < [ ] { @ } ~ $ = $ + + { $ = - ; ; ' ' | 1 ",
"2 3 4 4 4 4 5 4 6 7 7 8 7 9 7 0 0 7 4 4 a b 3 4 4 4 4 0 7 4 4 4 0 7 c 4 7 0 5 4 4 4 d e 4 4 7 7 0 f 7 g 0 4 4 h 5 f 7 5 6 4 g i ",
"j 4 k 4 4 k 4 0 4 0 0 4 4 4 4 4 4 4 4 4 l m n 4 0 4 4 0 f 4 0 0 4 4 4 4 4 4 4 4 4 o p q 4 0 4 4 0 4 0 4 h 4 4 4 4 4 4 4 4 4 7 r ",
"s 4 k 4 0 0 4 4 4 4 0 4 4 4 4 4 4 4 0 4 a t u 0 4 4 0 0 4 4 4 0 0 4 4 4 4 4 4 0 4 4 v w 4 4 4 0 4 4 4 4 0 0 0 4 4 4 4 4 4 0 4 x ",
"y 4 k 0 4 0 0 0 0 0 4 4 4 4 4 4 4 0 4 4 z A u 0 4 4 0 0 0 0 4 4 4 4 4 4 0 4 4 4 4 o B 6 4 4 4 0 0 0 0 4 4 4 4 4 4 0 4 0 4 4 7 C ",
"D 4 k 4 0 0 0 0 0 h h 4 4 0 4 0 4 h h c E F G 0 4 0 0 4 0 0 0 h 0 4 0 4 4 4 h h H 0 I 6 0 4 0 0 4 0 0 0 h 0 4 4 0 4 0 0 h c J K ",
"D 4 L 4 0 0 4 4 4 0 0 0 0 4 4 4 4 4 4 4 9 M 3 0 0 4 h 4 4 4 4 0 0 h 4 4 0 4 4 4 4 4 N O 4 0 4 h 4 4 4 4 0 0 h 4 4 0 4 4 4 4 4 P ",
"y Q k 0 4 4 h h 0 H h 0 0 4 h H c 4 4 4 E R 3 4 0 0 0 0 h 0 h H 0 0 4 0 S c 0 4 4 4 T 7 4 0 0 0 4 c 0 0 H h 0 4 4 H c c 4 4 7 C ",
"U 0 4 0 0 4 0 h 4 4 4 0 h 4 h 0 0 c 0 0 a V W 4 4 0 0 0 h 0 4 0 0 h 0 h 0 0 c h 0 X v Y 0 4 4 0 4 0 h 4 4 0 0 h 0 h 4 h h 0 0 r ",
"U 0 4 4 4 4 4 0 0 4 4 4 4 0 0 0 0 4 0 4 a F W 4 4 4 4 4 4 0 4 4 0 4 0 4 0 4 4 0 0 4 p 9 0 4 4 4 4 4 0 4 4 0 4 0 4 0 4 4 4 0 g Z ",
"`  ...+.+.....+.@.#.$.#...%...+.&.&.&.&. .*.=...+.+...#.@.@.-.;.>.@.....+.&.&.&.&.+.,.'.).@.+.+.#.@.+.@.!.~.{.+.....&.].].&.^./.",
"(._.:.<.[.}.|.1.2.3.4.5.6.7.7.7.7.8.:.8.9.0.a.:.b.c.d.e.3.f.1.g.h.i.9.9.7.7.j.:.8.:.k.l.8.b.c.[.m.n.1.1.o.p.8.7.7.7.q.j.:.j.:.k.",
"k k J f f r.r.s.s.o t.u.4 g o 0 r.f o o J v.v.w.f f f x.s.s.s.y.z.g g g o 0 r.o f r.0 v.0 w.o f X A.s.s.B.C.D.g g o X r.f o 0 E.",
"4 0 4 4 4 4 4 0 o 4 F.q 4 0 4 4 4 4 0 4 4 0 0 4 4 4 4 4 4 0 4 G.H.4 0 4 4 4 4 0 4 4 0 4 4 4 4 4 4 4 0 0 B.I.J.0 0 4 4 4 0 7 4 0 ",
"4 4 4 4 4 4 4 4 4 4 K.3 3 4 4 0 0 4 4 4 0 4 4 4 4 4 4 4 4 4 4 x L.4 4 4 4 0 0 4 4 4 4 4 4 4 4 4 4 4 4 4 M.N.k 4 4 4 0 0 4 4 4 0 ",
"4 4 0 4 0 0 0 0 c v.#.O.Q 0 0 h 0 0 0 4 E.4 4 4 0 0 0 0 0 h h P.Q.4 0 0 0 0 4 0 0 0 0 4 4 0 0 0 4 h 0 c c R.J.0 4 h 0 0 0 0 4 0 ",
"0 4 4 4 4 4 0 0 f S.T.S.4 4 4 4 4 0 4 0 4 0 4 4 4 4 4 4 0 0 4 P.U.4 4 4 4 4 4 4 4 4 0 4 4 4 4 4 4 0 0 4 h ..V.4 4 4 4 4 0 4 0 0 ",
"0 c 4 0 H h 4 4 g 4 W.3 Q h 4 h 4 0 0 0 c h h 4 4 c c 0 4 4 4 X.L.k h 4 0 h 0 0 4 c c 0 h 4 h c E.4 4 4 c Y.o h 0 4 h 4 0 0 0 c ",
"0 4 4 4 h 0 0 0 o 4 Z.Q Q 4 0 0 4 h 0 0 h 0 4 0 4 h 0 h 0 4 0 `. +J.4 0 0 0 0 0 0 h 0 0 0 4 0 h 0 0 4 4 H .+J.4 4 0 0 0 h 0 0 h ",
"h 0 0 h h 0 h 0 4 v.$.++@+4 0 0 4 h c 4 4 0 0 0 0 c 0 h h 0 0 G.C #+4 0 0 4 0 c 0 4 4 h h 4 h 0 0 h 0 v.S &.$+4 4 0 4 0 h h 0 4 ",
"H M.a M.M.E E E z %+&+*+=+H M.-+M.M.M.E M.;+z a S a E E E M.E >+,+a M.H H a M.E E '+)+E S a a E E E M.E !+~+{+S H M.M.M.E E M.a ",
"]+^+/+(+_+(+:+<+<+[+}+|+1+:+<+<+2+:+3+3+|+4+5+_+_+_+/+[+<+<+<+6+7+[+[+<+2+^+[+3+3+8+9+0+[+(+_+(+[+:+3+<+a+b+c+[+<+<+2+<+3+3+d+e+",
"f+g+h+i+i+i+j+u.u.h+g+i+i+q k+k+k+l+m+m+w n+o+u.i+i+h+p+u.u.u.g+u.i+j+h+k+q+q+r+m+m+s+t+i+i+i+h+q u.u.u.u.u.i+u.i+k+q+k+m+m+m+K ",
"j 4 k 4 4 0 0 4 4 h 0 4 4 0 4 0 0 0 4 4 a u+G 4 4 4 0 4 0 4 0 h 4 4 0 4 4 0 0 4 4 4 p v+4 0 4 4 0 4 0 4 h 0 4 0 4 4 0 0 4 4 4 r ",
"j 4 k 4 4 4 4 4 4 4 0 0 4 4 4 4 4 4 0 4 a w+3 0 4 4 4 4 4 4 4 0 0 4 4 4 4 4 4 0 4 o p t+4 4 4 0 4 4 4 4 4 0 0 4 4 4 4 4 4 0 7 r ",
"y 4 4 4 0 h 0 4 4 4 0 4 4 4 4 4 4 4 4 4 M.x+y+4 4 4 0 0 4 4 4 0 4 4 4 4 4 4 4 4 4 4 z+7 4 4 4 0 0 4 4 4 0 4 4 4 4 4 4 4 4 4 4 A+",
"s 4 0 4 0 0 0 0 0 0 h 4 4 0 0 0 4 h h c E B+C+h 4 0 0 0 0 0 4 h 0 4 0 4 0 0 0 h H X D+t+0 4 0 h 0 0 h 0 h 0 4 4 0 0 0 0 h c c K ",
"E+4 4 4 4 0 4 4 4 4 0 4 4 4 4 4 4 4 0 4 9 F+G 4 4 4 4 4 4 4 4 4 0 4 4 4 4 4 4 0 4 4 D+v.4 4 4 4 4 4 4 4 4 0 4 4 4 4 4 4 4 0 4 K ",
"G+0 $+0 0 0 h h 0 H c h h 4 c S c 4 4 4 c A Q h 0 0 h h c 0 h S 0 c 4 0 S c 0 4 4 4 H+6 0 c 0 h 4 c 0 0 S c h 4 4 S c h 4 4 4 C ",
"E+4 4 4 0 4 4 0 0 4 4 v.h 4 0 0 0 c 0 0 a F 3 4 4 0 0 4 0 0 4 4 0 0 0 0 4 0 h h 4 X I+5 4 4 0 h 4 4 0 0 4 0 4 h 0 0 0 h h 0 5 Z ",
"J+h 6 7 4 4 0 9 0 7 4 E.7 7 5 0 4 7 0 4 K+L+#+S.S.4 4 v.5 h 7 S.r.7 0 7 5 7 7 7 7 g '.M+0 6 4 7 7 5 9 7 4 0 0 v.4 9 7 7 4 7 g x ",
"N+O+P+Q+Q+P P+Q+R+S+T+U+P V+W+Q+Q+X+Y+Y+Z+`+x P P P+P+P Q+Q+Q+V+ @Q+P C P+.@Q+Y+Y+Q++@@@W+P+Q+Q+P P+Q+Y+T+S+U+P V+V+Y+Y+.@Q+.@#@",
"$@%@&@*@*@=@*@-@;@>@,@'@)@!@)@!@)@~@~@%@{@]@!@&@&@*@=@*@-@-@-@^@/@(@{@!@)@!@_@~@%@%@]@:@%@&@*@*@<@[@-@;@}@|@_@!@!@!@!@)@1@%@2@3@",
"0 4 h 4 0 0 0 4 4 S.4@5@3 4 4 4 0 0 4 4 0 0 0 h 0 0 4 h 4 4 4 6@H.4 4 0 4 0 h 4 4 0 4 0 4 h 0 0 0 0 4 4 {+b p+4 4 4 0 h 4 4 4 0 ",
"4 0 4 4 4 4 4 4 4 S.4@5@3 0 4 4 0 4 0 4 0 4 4 4 4 4 4 4 4 4 4 r H.4 0 4 4 4 4 0 0 0 0 4 4 4 4 4 4 4 4 4 {+7@J.4 0 4 0 4 0 4 0 0 ",
"0 4 4 4 4 4 4 0 o 4 8@G Q 4 4 0 4 4 4 4 0 0 4 4 4 4 4 4 4 0 4 6@9@4 4 4 4 0 4 4 4 4 0 4 4 4 4 4 4 4 0 4 S b 4 0 4 4 0 4 4 4 4 0 ",
"4 4 4 4 4 4 4 4 o 4 0@3 4 4 4 0 0 0 0 4 4 4 4 4 4 0 4 4 4 4 4 X.L.4 4 4 4 0 0 4 4 4 4 4 4 4 0 4 4 4 4 4 c a@4 4 4 4 0 0 0 4 4 4 ",
"0 4 0 4 4 0 h h H b@T.c@Q 4 0 0 0 0 0 0 h 0 4 4 0 4 0 0 h c c K d@4 0 4 0 0 4 0 0 h h 4 4 0 4 0 4 h c c J e@p+0 4 0 0 4 0 0 0 h ",
"4 0 4 4 4 4 4 4 4 S.%.S.4 0 4 h 4 4 4 4 4 4 0 4 4 0 4 4 4 4 4 P. +4 h 4 4 0 4 4 4 4 4 0 4 4 4 4 4 4 4 4 h &.f@0 4 4 h 4 4 4 4 4 ",
"0 0 4 0 S c 0 4 4 S.g@y+Q 0 0 4 4 c 0 0 S h 0 4 4 S c h 4 4 4 X.L.k 0 0 4 4 h h 0 H c 0 0 4 h S c 4 4 4 h@i@0 0 0 0 4 0 c 0 h H ",
"h 0 0 h 0 0 c h 0 v.8@#+Q 4 0 h 4 0 h 4 4 7 0 h 0 h 0 h h 0 0 G.j@0 4 0 0 0 0 h 4 4 0 h h f h 0 h c 0 0 k@l@0 4 0 0 0 f h 0 4 f ",
"4 4 k J.k J.J.4 o 3 F.E.o J.J.J.J.J.@+J.J.4 4 k J.4 4 4 J.k J.6@E+k J.J.J.J.J.k k J.J.4 Q Q 4 4 4 J.k J.S m@n@J.J.J.J.J.4 @+4 J.",
"@.@.#.o@@.e@e@e@p@q@r@'.g@@.@.@.#.@.q@q@g@#.s@@.#.#.q@^.e@e@q@t@`+!.@.q@@.#.@.q@q@#.g@{.u@#.#.q@q@e@e@e@v@w@=.#.s@s@@.#.q@{.@.g@",
"L.x@q.q.j.q.6.j.y@z@A@9.8.b.B@[.C@d.D@E@F@G@H@q.q.7.q.6.j.j.j.I@9.y@:.B@J@C@J@D@D@K@L@M@6.q.q.q.6.j.:.j.q.I@q.j.<.J@d.J@D@N@D@H.",
"O@P@4 4 4 0 h 4 S.b@0 0 0 c 4 k k k J.4 a u+V.4 4 4 0 h 4 4 0 X 0 f c k k k 0 J.J.J.Q@R@4 4 4 0 h 0 4 4 h 0 4 h 0 k k L J.J.4 r ",
"j 4 0 4 4 4 4 0 4 4 0 4 4 4 4 4 4 4 0 4 a w+3 4 0 4 4 4 4 4 0 0 o 4 4 4 4 4 4 0 0 4 S@T@4 0 4 0 4 4 0 4 4 4 0 4 4 4 4 4 4 0 7 r ",
"y 4 4 4 0 0 4 4 4 4 0 4 4 4 4 4 4 4 4 4 a U@Q 4 4 4 0 0 4 4 4 0 4 4 4 4 4 4 4 4 4 4 V@W@4 4 4 0 0 4 4 4 4 0 4 4 4 4 4 4 4 4 4 x ",
"s 4 k 4 0 0 0 0 0 0 4 4 4 0 0 0 4 0 0 c E X@3 0 4 0 0 0 0 0 4 0 4 4 0 0 0 0 0 0 c X Y@Z@0 4 0 0 0 0 0 0 0 4 4 4 0 0 0 0 0 h 9 C ",
"`@4 4 4 4 4 4 4 4 0 0 4 4 4 4 4 4 0 0 0 9  #G 4 4 4 4 4 4 4 0 0 0 4 4 4 4 4 4 0 0 4 D+v.4 4 4 4 4 4 4 0 0 0 4 4 4 4 4 4 0 0 7 K ",
"y 0 $+4 0 h v.4 0 h c h h 4 h c 0 4 4 4 9 R J.h 0 4 h 4 0 4 0 c h c 4 0 c h 4 4 4 4 o@S.0 c 4 h 4 0 4 4 c h h 4 4 c h 4 4 4 4 P ",
"`@4 4 0 0 4 h E.0 h 0 4 4 4 0 h h 0 4 4 H .#3 4 4 0 0 0 h 0 0 h 4 4 4 4 h 0 0 4 4 o v@v.4 4 0 0 4 h 0 0 h 0 4 4 4 h 0 h 4 4 f A+",
"+#h J.Q u 3 Q $+Q J.J.L @+Q #+k @+@#k Q ##{.$#J.J.k J.Q L @#Q u @+W Q @+@+W #+@+Q k ~.c W J.u Q J.W #+Q u Q k @+Q #+Q @#@+Q 0 r ",
"%#&#c c c E c c J E E J -+M.H 9 9 9 c 9 *#=#-#-+c J J E J c c H c c M.H E 9 9 9 J c ;#>#M.c c 9 E c 9 J H E c M.H -+9 9 h c 5 ,#",
"'#)#)#!#~#{#)#]#^#]#/#(#)#_#_#:#)#<#[#~#}#|#1#)#!#[#[#~#]#]#]#2#3#6+1#_#_#1#!#~#~#!#4#}#)#)#~#~#~#~#]#]#5#6#<#_#:#_#1#!#!#~#~#7#",
"8#m+q+9#0#a#0#b#c#b#d#e#l+r+8#m+q+f#r+8#r+8#m+8#r+g#h#i#b#b#b#j#h.8#8#8#m+r+k+r+8#r+8#r+r+q+0#h#0#a#b#k#l#m@m#l+r+r+r+k+m+l+m+m+",
"7 7 0 4 4 0 0 4 g 4 t.u.3 f 7 7 0 7 7 7 J f 7 7 4 7 7 5 4 4 4 G.O@4 0 7 7 0 0 7 7 h 0 7 7 0 4 f 0 0 4 4 B.n#f@7 7 7 f 7 f 7 0 r.",
"4 0 4 4 4 4 4 0 o v.F.q Q 4 4 4 4 4 4 4 4 0 0 4 4 4 4 4 4 0 0 G.H.4 4 4 4 4 4 4 4 4 0 4 4 4 4 4 4 4 0 0 B.I.J.0 4 4 4 4 4 4 4 0 ",
"4 4 4 4 4 4 4 4 4 S.d#S.4 4 4 0 0 0 4 4 0 4 4 4 4 4 4 4 4 4 4 `.L.4 4 4 4 h 0 4 4 4 0 4 4 4 4 4 4 4 4 4 H Y.k 4 4 4 0 0 4 4 4 0 ",
"4 4 0 4 0 0 h 0 H v.T.O.Q f 0 0 0 0 h 4 h 4 4 4 0 0 0 0 h c c P.Q.Q 0 0 0 0 0 0 0 0 0 4 4 0 0 0 4 h h H c N.f@0 4 0 0 0 0 0 4 h ",
"4 4 4 4 4 4 4 0 4 S.T.Q 3 4 4 4 4 4 4 4 4 0 4 4 4 4 4 4 0 4 4 P.K 3 4 4 4 4 4 4 4 0 0 4 4 4 4 4 4 4 0 4 h #.V.4 4 4 4 4 4 4 4 4 ",
"E.c 4 0 S c 0 4 g 4 W.3 Q h 0 h 0 c 0 0 H c c 0 4 S c h 4 4 4 X.Q.k c 0 0 h h h 0 H c h h 4 c S c 4 4 4 J o#k h 0 0 h 0 c 0 h H ",
"0 0 0 0 4 0 h h 0 0 p#v.Q 4 4 0 4 4 0 0 0 0 4 h 0 4 0 h h 0 0 q#U.4 4 4 0 4 4 0 0 0 4 4 h 4 0 0 h c 0 0 S &.J.4 4 0 0 4 4 0 4 0 ",
"0 0 0 0 h 4 4 4 4 S.8@Y 0 4 4 4 4 h c 4 4 4 0 0 4 h 4 4 4 4 4 6@K h 4 4 4 4 0 c 0 4 4 h 0 0 h 0 4 4 4 4 S .+$+4 4 4 4 0 h h 4 4 ",
"r#r#s#s#s#t#t#u#t#v#w#x#y#r#r#v#z#r#v#v#z#s#v#s#z#z#t#t#u#t#A#B#C#.@s#v#v#s#s#v#D#s#s#v#s#s#z#v#t#u#t#u#E#F#X+z#v#v#s#s#v#v#r#G#"};
