/* XPM */
static char * green_xpm[] = {
"64 64 168 2",
"  	c #407E4F",
". 	c #417F50",
"+ 	c #428051",
"@ 	c #427F53",
"# 	c #417E52",
"$ 	c #438054",
"% 	c #448155",
"& 	c #458256",
"* 	c #458255",
"= 	c #458354",
"- 	c #468455",
"; 	c #448253",
"> 	c #478556",
", 	c #488355",
"' 	c #498456",
") 	c #448255",
"! 	c #3F7D4E",
"~ 	c #417F51",
"{ 	c #3E7C4D",
"] 	c #407E50",
"^ 	c #478455",
"/ 	c #478355",
"( 	c #3E7B4F",
"_ 	c #407D51",
": 	c #468155",
"< 	c #488156",
"[ 	c #498257",
"} 	c #4A8358",
"| 	c #3F7C50",
"1 	c #478055",
"2 	c #417D51",
"3 	c #427E52",
"4 	c #437F53",
"5 	c #458155",
"6 	c #458253",
"7 	c #468354",
"8 	c #468254",
"9 	c #417C50",
"0 	c #427D51",
"a 	c #437E52",
"b 	c #447F53",
"c 	c #458054",
"d 	c #468153",
"e 	c #478254",
"f 	c #427B50",
"g 	c #437C51",
"h 	c #447D52",
"i 	c #457E53",
"j 	c #467F54",
"k 	c #467F52",
"l 	c #478053",
"m 	c #407B50",
"n 	c #427D52",
"o 	c #417C51",
"p 	c #437D52",
"q 	c #467E53",
"r 	c #467F53",
"s 	c #477F55",
"t 	c #488056",
"u 	c #3F7B4F",
"v 	c #487F55",
"w 	c #467D53",
"x 	c #457C52",
"y 	c #427A50",
"z 	c #437A50",
"A 	c #42794F",
"B 	c #477E54",
"C 	c #417A4F",
"D 	c #417A51",
"E 	c #417A50",
"F 	c #498056",
"G 	c #40794E",
"H 	c #447C51",
"I 	c #3F784D",
"J 	c #40794F",
"K 	c #407950",
"L 	c #447C52",
"M 	c #3F774D",
"N 	c #40784E",
"O 	c #40784F",
"P 	c #41794F",
"Q 	c #427A51",
"R 	c #417951",
"S 	c #417950",
"T 	c #437B50",
"U 	c #427A4F",
"V 	c #437B51",
"W 	c #457D52",
"X 	c #457C53",
"Y 	c #467D54",
"Z 	c #40774D",
"` 	c #3F764C",
" .	c #40774F",
"..	c #417850",
"+.	c #41784F",
"@.	c #41784E",
"#.	c #447B51",
"$.	c #457C54",
"%.	c #467D55",
"&.	c #447B52",
"*.	c #447B53",
"=.	c #437A52",
"-.	c #3E754B",
";.	c #437A51",
">.	c #3F764E",
",.	c #40774E",
"'.	c #467B51",
").	c #477C52",
"!.	c #427951",
"~.	c #427950",
"{.	c #457A50",
"].	c #3F764D",
"^.	c #477A51",
"/.	c #467950",
"(.	c #3E754D",
"_.	c #437951",
":.	c #3D744C",
"<.	c #427A52",
"[.	c #437A53",
"}.	c #437B53",
"|.	c #427A4E",
"1.	c #42794E",
"2.	c #41794E",
"3.	c #41794D",
"4.	c #41784D",
"5.	c #3F774F",
"6.	c #417952",
"7.	c #427A53",
"8.	c #427A4D",
"9.	c #42794D",
"0.	c #41794C",
"a.	c #3C734B",
"b.	c #407851",
"c.	c #40764E",
"d.	c #407750",
"e.	c #417851",
"f.	c #427952",
"g.	c #437750",
"h.	c #42764F",
"i.	c #3F754E",
"j.	c #41764E",
"k.	c #427750",
"l.	c #437751",
"m.	c #437852",
"n.	c #447852",
"o.	c #41764F",
"p.	c #3F754D",
"q.	c #41774F",
"r.	c #43764F",
"s.	c #43754F",
"t.	c #427650",
"u.	c #3F764F",
"v.	c #42754F",
"w.	c #42754E",
"x.	c #447650",
"y.	c #447651",
"z.	c #457752",
"A.	c #437550",
"B.	c #40754E",
"C.	c #437650",
"D.	c #407650",
"E.	c #41754F",
"F.	c #40764F",
"G.	c #417750",
"H.	c #40754F",
"I.	c #3B724A",
"J.	c #3E754E",
"K.	c #3F7750",
"  . . + + @ @ @ @ # @ @ $ % % % % % % % % % % % % % % % % % % % $ & & * = = = = = - - - - - = = ; ; ; = = = = - > > - - - - , ' ",
"    . . + @ @ @ @ # @ @ $ % % % % % % % % % % % % % % % % % % % $ & & ) = = = = = - - - - - = = = = = = = = = - > > - - - - , ' ",
"!     . ~ @ @ @ @ # @ @ $ % % % % % % % % % % % % % % % % % % % $ & & ) = = = = = - - - - - = = = = = - - - - - > > - - - - , ' ",
"! !     ~ @ @ @ @ # @ @ $ $ $ $ $ $ $ $ $ $ $ $ $ $ $ $ $ $ $ $ $ & & ) = = = = = - - - - - = = = = = - - - - - > > - - - - , ' ",
"{ ! !   ] @ @ @ @ # @ @ $ $ $ $ $ $ $ $ $ $ $ $ $ $ $ $ $ $ $ $ $ & & * = = = = = - - - - - = - - - - - > > > - > > - - ^ / , ' ",
"( _ # @ $ @ @ @ @ @ @ $ $ $ $ $ $ % % % % % % % % % % % % % % % $ % % % ; ; ; ; = = = = = = = = = = = = = = = = = = = : < < [ } ",
"| _ # @ @ $ $ $ @ # @ @ @ @ @ @ $ $ $ $ $ $ $ $ $ $ $ $ $ $ $ $ $ % % % ; ; ; ; = = = = = = = = = = = = = = = = = = = 1 < < [ [ ",
"| _ _ # # @ @ @ @ # # @ @ @ @ @ $ $ $ $ $ $ $ $ $ $ $ $ $ $ $ $ $ % % % ; ; ; ; = = = = = = = = = = = = = = = = = = = 1 < < [ [ ",
"( 2 2 2 2 2 2 2 2 2 3 3 3 @ @ @ 4 4 4 4 4 4 4 4 4 4 4 4 4 4 4 4 $ % 5 5 6 6 6 6 7 7 7 7 7 7 7 7 7 7 7 7 7 7 7 7 7 7 8 1 < < [ < ",
"9 0 0 9 9 9 9 9 9 0 0 a a a a a b b b b b b b b b b b b b b b b c : : : d d d d e e e e e e e e e e e e e e e e e e e 1 < < [ < ",
"9 9 0 0 0 0 0 0 0 a a a a a a b b b b b b b b b b b b b b b b b b c c c d d d d e e e e e e e e e e e e e e e e e e e 1 1 1 < < ",
"9 9 a a 0 a a a a a a a a a a b b b b b b b b b b b b b b b b b b c c c d d d d e e e e e e e e e e e e e e e e e e e 1 1 1 < < ",
"f g h h h h h h h h h h h h h i i i i i i i i i i i i i i i i i i j j j k k k k l l l l l l l l l l l l l l l l l l l 1 1 1 < < ",
"f g i i h g g g g h h h h h h i i i i i i i i i i i i i i i i i i j j j k k k k l l l l l l l l l l l l l l l l l l l 1 1 1 < < ",
"m 0 0 n 0 9 9 9 o n n n p h h h i i i i i i i i i h h i j j j j q j j j r r r r r r r r r r r r r r r r r r r r r r j s s s t t ",
"u | | | | u u u | _ _ _ 0 g h h h h h h h h h h h h h i j j j j j j j j j j j j j j j j j j j j j j j j j 1 1 1 1 1 1 v v v v v ",
"9 0 0 0 0 9 9 9 9 0 0 0 0 g h h h h h h h h h h h h h i j j j j j j j j j j j j j j j j j j j j j j j j j 1 1 1 1 1 1 v v v v v ",
"9 0 0 0 0 9 9 9 9 0 0 0 0 g h h h h h h h h h h h h h i j j j j j j j j j j j j j j j j j j j j j j j j j 1 1 1 1 1 1 v v v v v ",
"0 0 0 0 0 0 0 0 0 0 0 0 0 g h h h h h h h h h h h h h i j j j j j j j j j j j j j j j j j j j j j j j j j 1 1 1 1 1 1 v v v v v ",
"g f f f f f f f f f f f f f f g g g g g g g g g f f g h i i i i i i i i i i i i i i i i i i i i i i i i i i j j j j j w w w w x ",
"f f f f f f f f f f f f f f f g g g g g g g g g f f g h i i i i i i i i i i i i i i i i i i i i i i i h i i j j j j j w w w w w ",
"f f f f f f f f f f f f y f f g g g g g g g g g f g h i i i i i i i i i i i i i i i i i i i i i i i i h i i j j j j j w w w w w ",
"z z z z z z z z z z z z y f f g g g g g g g g g g g h i i i i i i i i i i i i i i i i i i i i i i i i h i i j j j j j w w w w w ",
"A z z z z z z z z z z z y f f g g g g g g g g g g h i j i i i i i i i i i i i i i i i i i i i i i i i h i i j j j j j w w w w B ",
"C C C C C D D D D D D D E C C f C C C C C C C C g g h h i i i i h h h h h h h h i i i i i i i i i i i w w B B v v F F B B B w w ",
"C C C C C D D D D D D D E C C f f f f f f f f f g g h h i i i i h h h h h h h h i i i i i i i i i i i w w B B B v v F B B B w w ",
"G C C C C D D D D D D D E C C f f f f f f f f f g g h h h h h h g g g g h h h h h h h h h h h h h h h x x w w B B v v B B B w B ",
"G C C C C D D D D D D D E C C f f f f f f f f f g g h h h h h h g g g g h h h h h h h h h h h h h h h x x w w w B B v B B B w B ",
"G C C C C D D D D D D D E C C f g g g g g g g g g g h h g g g g g g g g h h h h g g g g g g g g g g g H x x w w w B B B B B w v ",
"G I G G J D D D D K K K K C C f g g g g g g g g g g h h h h h h g g g g h h h h h h h h h h h h h h h x x x w B B B B B B B B B ",
"G I G G J D D D D K K K K C C f g g g g g g g g g g g h h h h h g g g g h h h h h h h h h h h h h h h x x x w B B B B B B B B B ",
"I I G G J D D D D K K K K C C f g g g g g g g g f f g g g g g g g g g g h h h h h h h h g g g g g g g L x x w B B B B B B B B B ",
"I I G G J D D D D K K K K C C f f f f f f f f f C f f g g g g g g g g g h h h h h h h h g g g g g g g L x x w w w w w w w w w w ",
"M M N O P Q Q Q R R R R S P P C y T T T T T T T U y T V H L L L L L L L W W W W W W W L L L L L L L L X X Y Y Y Y Y Y w q q q q ",
"Z ` Z  .................+.@.@.@.A z z z z z z z A z z #.#.#.#.#.#.#.#.#.x x x x x x x x #.#.#.#.#.#.#.X $.$.%.%.%.%.%.i i i i i ",
"` ` Z  .................+.@.@.@.A A A A A A A A A z z #.#.#.#.#.#.#.#.#.x x x x x x x x #.#.#.#.#.#.#.&.*.$.$.$.$.$.$.h h h h h ",
"` ` Z  ... . . . . . . .+.@.@.@.A A A A A A A A A z z #.z z z z z z z #.#.#.#.#.#.#.#.#.z z z z z z z =.*.*.$.$.$.$.$.x x x x x ",
"-.` Z  ... . . . . . . . .@.@.@.@.A A A A A A A A z z #.z z z z z z z z #.#.#.#.#.#.#.#.z z z z z z z ;.=.*.*.$.$.$.$.x x x x x ",
"-.` `  . . . . . .>.>.>.,.@.@.A A A A A A A A A A z z #.z z z z A z z #.x x x x #.#.z z z z z z z z z ;.=.*.*.*.*.*.*.'.'.'.'.).",
"-.` `  . . . . . . . . . .@.@.A A A A A A A A A A z z z z z z z A z z #.#.#.#.#.#.#.z z z z z z z z z ;.=.*.*.*.*.*.*.'.'.'.'.'.",
"-.` `  . . . . . .......+.Z @.@.A A A A A A A A A A z z A A A A A z z #.#.#.#.#.#.z z A A A A A A A A !.=.=.*.*.*.*.*.'.'.'.'.'.",
"-.` `  . . . . . . . . .,.Z Z @.@.@.@.@.@.@.@.@.@.@.A A A A A A A z z #.z z z z z z A A A A A A A A A ~.!.=.=.*.*.*.*.'.'.'.'.{.",
"-.` `  . . . . . .>.>.>.].` Z Z @.@.@.@.@.@.@.@.@.@.A A @.@.@.@.A z z #.z z z z z A A @.@.@.@.@.@.@.@...!.!.=.*.*.*.*.'.^.^.^./.",
"(.(.(.>.>.>.>.>.>. . . .+.@.@.@.@.@.@.@.+.......!.!.!.!.A A A A A A A A z z z z z A A A A A A A A A A ~.!.!.!.!.!.!.!.!._._._._.",
"(.(.(.>.>. . . . . . . . .@.@.@.@.@.@.@.+.......!.!.!.!.A A A A A A A A z z z z z A A A A A A A A A A ~.!.!.!.!.!.!.!.!.!.!.!.!.",
"(.(.(.>.>. . . . . . . . .@.@.@.@.@.@.@.~.!.!.!.!.!.!.!.A A A A A A A A A A A A z A A A A A A A A A A ~.!.!.!.!.!.!.!.!.!.!.!...",
"(.(.(.>.>. . . . . . . . .@.@.@.@.@.@.@.~.!.!.!.!.!.!.!.A A A A A A A A A A A A z A A A A A A A A A A ~.!.!.!.!.!.!.!.!.!.!.!...",
"(.(.(.>. ......... . . . .@.@.@.@.@.@.@.~.!.!.!.!.!.!.!.A A A A A A A A @.@.@.A z A A A A A A A A A A ~.!.!.!.!.!.!.!.!.!.!.!...",
":.>.>. . . . . . . . . . .@.@.@.A A A A ....!.!.!.!.!.!.A A A A @.@.A A A A A A A A @.@.@.@.@.@.@.@.@.~.!.!.!.!.!.!.!.........>.",
":.(.>.>. . . . . . . . . .@.@.@.A A A A ....!.!.!.!.!.!.A A A A @.@.A A A A A A A A @.@.@.@.@.@.@.@.@.~.!.!.!.!.!.!.!.........>.",
":.(.(.>.>. . . . . . . . .@.@.@.A A A A ~.!.=.=.!.!.!.!.A A A A @.@.A A A A A A A A @.@.@.@.@.@.@.@.@.~.!.!.!.!.!.!.!.........>.",
":.:.(.(.>. . . . . . . . .@.@.@.A A A A ~.=.=.*.=.=.=.=.A A A A @.@.A A A A A A A A @.@.@.@.@.@.@.@.@.~.!.!.!.!.!.!.!.........>.",
":.:.:.(.>. . . . . . . . .P P S S y y y !.<.[.}.<.<.<.<.A |.|.1.1.1.|.|.|.|.|.1.2.3.4.@.+.+.+.+.+.+.+.S S R Q Q Q Q Q ........>.",
":.:.(.(.(.>.>.>.>.>.>.>.5.K K D K K K K R 6.6.7.6.6.6.6.1.8.8.8.8.8.8.8.8.8.8.9.0.0.0.+...............K K D D K K K K ........>.",
"a.:.:.(.(.>.>.>.>.>.>.>.5.K K D K K K K b.b.6.6.6.6.6.6.~.A A A A A A A A A A A @.@.@.+...............O K K D K K K K ........ .",
"a.a.a.:.(.>.>.>.>.>.>.>.c. . ..... . . .d.e.e.f.e.e.e.e.~.A A A A A A A A A A A @.@.@.+............... . . ..... . . .g.g.g.g.h.",
"a.a.a.:.:.>.>.>.>.>.>.>.>.>. . . . . . .d.d.e.e.e.e.e.e.~.A A A A A A A A A A A @.@.@.+............... . . ... . . . .g.g.g.g.g.",
"a.a.:.:.(.(.(.(.(.(.(.(.i.j.h.k.g.g.g.g.l.l.m.n.n.n.l.l......... .....~.........!.!.!.................o.o.h.k.g.g.g.g.h.h.h.h.h.",
"a.a.:.:.(.(.(.(.(.(.(.(.p.h.h.g.g.g.g.g.l.l.n.n.n.n.l.l.q. . . . . ..... . . . ......... . . . . . . .j.h.h.g.g.g.g.g.r.s.s.s.s.",
"a.a.:.:.(.(.(.(.(.(.(.(.p.h.h.g.g.g.g.g.l.l.n.n.n.l.l.t. . . . .u. .d...e.e.e.e......... . . . . . . .j.h.h.g.g.g.g.g.s.s.s.s.s.",
"a.a.:.:.(.(.(.(.(.(.(.(.p.v.h.g.g.g.g.g.l.l.n.n.l.l.t.t.d.d.d.d.u.u.d.d.f.f.f.e.d.d.d.d. . . . . . . .j.h.h.g.g.g.g.g.s.s.s.s.s.",
"a.a.:.:.(.(.(.(.(.(.(.(.p.w.s.x.x.x.x.x.y.y.z.z.y.A.A.v.u.u.u.u.u.u.d.d.d.d.d.d.d.d.d. .>.>.>.>.>.>.>.B.v.s.C.x.x.x.x.s.s.s.s.s.",
"a.a.a.:.:.>.>.>.(.(.(.>.5.D.E.E.t.y.y.y.y.y.y.t.E.E.F.F.d.d.u.u.u.d.e.e.b.b.b.b.b.b.b.d.u.u.u.d.d.d.d.d.G.G.G.F.F.F.H.s.s.s.s.s.",
"I.I.a.a.:.(.(.(.(.(.(.>.u.u.H.E.t.y.y.y.y.y.A.t.t.t.d.d.d.u.u.J.u.d.d.d.b.b.b.b.K.K.K.K.u.u.u.d.d.d.d.d.d.d.d.u.u.u.u.s.s.s.s.s."};
