/* XPM */
static char * white_xpm[] = {
"64 64 69 1",
" 	c #A9A9A9",
".	c #B8B8B8",
"+	c #BBBBBB",
"@	c #BABABA",
"#	c #B9B9B9",
"$	c #B7B7B7",
"%	c #B6B6B6",
"&	c #B5B5B5",
"*	c #B3B3B3",
"=	c #B4B4B4",
"-	c #B2B2B2",
";	c #F8F8F8",
">	c #F7F7F7",
",	c #F6F6F6",
"'	c #F5F5F5",
")	c #F3F3F3",
"!	c #F4F4F4",
"~	c #F9F9F9",
"{	c #BCBCBC",
"]	c #BEBEBE",
"^	c #BFBFBF",
"/	c #BDBDBD",
"(	c #FAFAFA",
"_	c #B1B1B1",
":	c #B0B0B0",
"<	c #AEAEAE",
"[	c #AFAFAF",
"}	c #C0C0C0",
"|	c #C1C1C1",
"1	c #C2C2C2",
"2	c #C7C7C7",
"3	c #EEEEEE",
"4	c #EFEFEF",
"5	c #F0F0F0",
"6	c #EDEDED",
"7	c #ECECEC",
"8	c #EBEBEB",
"9	c #EAEAEA",
"0	c #E9E9E9",
"a	c #E8E8E8",
"b	c #E7E7E7",
"c	c #E6E6E6",
"d	c #E5E5E5",
"e	c #E4E4E4",
"f	c #E1E1E1",
"g	c #E0E0E0",
"h	c #DFDFDF",
"i	c #DDDDDD",
"j	c #DCDCDC",
"k	c #DBDBDB",
"l	c #DADADA",
"m	c #D9D9D9",
"n	c #D8D8D8",
"o	c #D7D7D7",
"p	c #D6D6D6",
"q	c #D5D5D5",
"r	c #ACACAC",
"s	c #C4C4C4",
"t	c #C3C3C3",
"u	c #C5C5C5",
"v	c #C6C6C6",
"w	c #C8C8C8",
"x	c #CACACA",
"y	c #CCCCCC",
"z	c #CECECE",
"A	c #CDCDCD",
"B	c #D0D0D0",
"C	c #D1D1D1",
"D	c #D3D3D3",
" .++@@@#....$@#$#$$%&*==***==*-=-=%&=%%%$@#.@###.#@++...@#@@.@. ",
"#;;;>>,,,,,,,,,>>>,'')!''!'!!!!!!''!'!'!'','',,,,,>,''!!,'',,,,#",
"#;~;;>>>>,,,>,,>,>''''',,!''',,,,!,>,','>,,',,,,,,,,''''>,,>>,>+",
"@;>>;>>,,>>>>>>>>>,,,,,,,'!,,,>,,,>>,,,,,,,',,,,,,,,,,,>>>>>,',@",
"{;;>;>>,,>>>>>>>>>>>>>>>,'',,,,'',>>,,,,,,,',,,,,,,,,,,>>>>>,',@",
"]>;>>>>>,>>>>>>>>>,''>>>>>>,,,,'',,>,,,,,,,',',,,,,,,',,>>>>,',$",
"^,~>>>;;,>>>>>>>>>>>,>>>>,>,,,,,,,,,,,,,,,,,,,,',,,'',,,,,,,,',@",
"/>~>>>;;,>>>>>>>>>>>,>>>>,>,,,,,,,,,,,,,,,,,,>>',,,',>,,,,,,>,,{",
"+>;;;;;;,>>>>>>>>>>,,>>>>,>,,,,,,,,,,,,,,,,,,',',,,>>,,,,,,,'''@",
"@>>>,,;;,>>>>>>>>>,,,>>>,,,>>,,>,,',,,,,>,,,,>>,,>,>>>>>>>>>',,@",
".>;;>>;;,>>>>>>>>>,,,>>>>>>>>,,>,,',,',,>,,,,>>,,>,>>>>>>>>>,>>.",
"@;~~;;;;>>>>>>>>>>,,,>>>>>>>>,,>,,',>',,>,,,,>>,,>,>>>>>>>>>>>>+",
"#~~~;>;;;>>,>>>>>>,,,>>>,,>>>,,,>,,,,,',',>,>,>,>>>,,,,>,>>>,>,+",
"@;~~;>;;;;;>>>>>>>>>>>>>,>>>>,,>>>>>,,'!';>,>,>,>>>,,,,>,>>>,>,$",
"@>(~;>;;;~;>>>>>>>>>>>>>,>>>>,,,>>>>,,'''>>,>,>,>>>,,,,>,>>>,>>-",
"@~~~;>>>>;>>>;>>>>>>>>>>>>>>>>,,,,;>,,,,>>>>>,,>,,>>>>>,,>>>;>>=",
"@~~~;>>>>;>>,>,>>>>>>>>>>>>>>>,,,'>>>>>,>>>>>,>>>>,>>>>>,>>>;>>$",
"@~~~;>>>>;>>;;;>>>>>>>>>>>>>>>,,,',,>>>,>>>>>,>>>>,>>>>>,>>>>>>*",
"{;~~~~~;>;;;>>>,,>>>>>>>>>>>>>>>>>>,,,,>>,,,,>>>>>,>,,>>>>>>>>;=",
"{;~~~~~;>;;;>>>,>>>>>>>>>>>>>>>>>>>,,,,>>,,,,>>>>>,>>,>>>>>>>>;&",
"{;~~~~~;>;;;>>>,>>>>>>>>>>>>>>>>>>>,,,,>>,,,,>>>>>,>>,>>>>>>>>;.",
"+~~~~;~;>>>>;;,>>>>>>>>>>>>>,,>>>>,,>,>,>,>>>>>>>>,>>>,,>,,,,;;&",
"{~;~~;~;>>>>;;,>>>>>>>>>>>>>>,>>>,,'>,>,>,>>>>>>>>,>>>,>>''',;;=",
"/~;~~;~;>;;;;;,>>>>>>>>>>>>>>,>>>,'!>,>,>,>>>>>>>>,>>>,>>,,,,;>*",
"{;~~~;;;;;;;~;>>,,,,>>>>>>>>>,>>>>>>>,,>>>>>>>>>,>>>>>>>,,,>>>>*",
"#~;~~;;;;>>>;>>>>,,>>>>>>>>>>,>>>>>>,,'>>>>>>>>>,>>>>>>>,,>>>>>-",
"/;~~~;;;;>>>>>,>>,,>>>>>>>>>>,>>>>>>,'!>>>>>>>>>,>>>>>>>,,>>>>>-",
"{;;~~;~;>>>>;>>>>>>>>>>>>>>>>>,,,,,>,,,>,>>>>,,>>>>>>>>>>>>>,>;_",
"{;;~~;~;>>>>;>>>>>>>>>>>>>>>>>,,,,>>>>>>,>>>>!''>>>>>>>>>>>>,>;&",
"{;;~~;~;>;;;;>>>>>>>>>>>>>>>>>,,,,>>>>>>,>>>>,,>>>>>>>>>>>>>,>;-",
"+;;~~;~>;~;>;;,>>>,>>>>>>>>,',,>,,>>>,>,>,>>>>>>>>>,,,;>;>>>,,>=",
"^;~~~;~>;;>>;;,>>>,>>>>>>>>>,>,>,,>>>,>,>,>>>>>>>>>,,,>,>>>>>,>-",
"+;;~~;~>;>>,;;,>>>,>>>>>>>>;>;,>,,,>>,>,>,>>>>>>>>>,,,,',>>>>,,_",
"{~~~~;~;>>>>>>,>>>>>>>>>>>>>>>>>>>,>'''>>>,,,>>>,,,>>>>,,,>>,,>_",
"/;;~~;~;>>>>>>,>>>>>>>>>>>>>>>>>>>,>>>>>>>,,,>>>,,,>>>>>,,>>,,>_",
"]>;~~;~;>>>>>>,>>>>>>>>>>>>>>>,,,>,>'''>>>,,,,,,,,,,,,>>,,>>,,;&",
"/;~~~~;;;,>;>>,,>>>>>>>>>>,>>>,,>>,,,,>,,,,,,,,,',',,,,,,,,,,,>-",
"+>~~~~;;;>>>>>,,>>>>>>>>>>,>>>>>,;,,>>,,,,,,,,,,',',,,,,,,,,,,>:",
"@;(~~~;;;;>>>,,,,>>>>>>>>>,>>>,,>,,;,>>,,,,,,,,,',',,,,,,,,,,,><",
"@,;;;;>>>>;>,>,>>>>>>>>>>>,,,,>>>>,>,,,,,,,,,,,,,>,,,,,,,,,,,,>*",
"{>~;;;>>>>;>,>,>>>>>>>>>>>,,,,>>>>,>,,,,,,,,,,,,>>>,,,,,,,,,,,>=",
"#>(;;;>>>>;>,>,>>>>>>>>>>,,,,,>>>>,>,,,,,,,,,,,,''',,,,,,,,,,,>&",
".>;>;>>>;;>,>>>>>>>>>>>>>>>>>>>>,'''>'',,,,',',,>,,,,,,,,,,,,,>%",
".>;>;>>>;;>,>>>>>>>>>>>>>>>>>>>>,>>>,',,,,,',',,>>,,,,,,,,,,,,>&",
".>;>;>>>;;>,>>>>>>>>>>>>>>>>>>>>,'''''>,,,,',',,>>,,,,,,,,,,,,>#",
"@>>~;>>>;>>,,>,>>>>>>>,>>>,>>>>>,,,,,,>,,,,,,,,,,,,,,,,,,,,,,>>$",
"%'>;>>>>;~;;,>,>>>>>>>,>>>,>>>>>,,,,!'',,,,,,,,,,,,,,,,,,,,,,>>{",
"%'>>>,>>;;>,,>,>>>>>>>,>>,,>>>>>,,,,',>,,,,,,,,,,,,,,,,,,,,,,>>/",
"$>;;;;;;>>,,>>>>>>>>>,,>>>>,,,,,,,,,,,,>,',,,,,',,,,,,,,,,,,,,>+",
"&>;;;;;;,>>,>>>>>>>>>,>>>>>,,,,,,,,,,,,,,,,,,,,',,,,,,,,,,,,,,>#",
"=,;;;;;;,>,,>>>>>>>>>>>,>>>,,,,,,,,,,,,',,,,,,,',,,,,,,,,,,,,,>#",
"=,>;;;;>,>>>>>>>>>>>>,,,>>>>>,;;>,,,,,,,,,,,,,,,,,,,,,,,,,,,,,>+",
"[',;;;>;~>>>>>>>>>>>>>,'>>>>>,,,',,,,,,,,,,,,,,,,,,,,,,,,,,,,,>@",
"[>,;;;>>>>>>>>>>>>>>>,,'>>>,>',,',,,,,,,,,,,,,,,,,,,,,,,,,,,,,>/",
"*,;;;;;>,>>>>>>>>>>>>>>>>>>>>',,,,,,,,,''',,,,,,,,,,,,,,,,,,,',/",
"=>~,,>>>,>>>>>>>>>>>>>>>>>>>>,,,',,,,,,,,,,,,,,,,,,,,,,,,,,,,',/",
"$>>>>;>>,>>>>>>>>>>>>>>>>>>>>,>,',,,,,,,,,,,,,,,,,,,,,,,,,,,,',^",
".';>;;>>>,>>>>>>>>;>>>>>>>>,,,,,',,>,,',,,,,,,,,,,,,,,',,>,,',,}",
".!;,>,>>>,>>>>>>>>>>,>>>>>>,,,,,',,>,,',,,,,,,,,,,,,,,','>,,',,|",
"@';,>,>>>,>>>>>>>>,,',,,,,,,,,,,''',,,',,,,,,,,,,,,,,,',',''',,1",
"$!',>>>,>,,>,,,>>>,,'''',,,,>,>>!!!',,',!',,',>,,,,,,''!'''!'',1",
"+);;>>,,,,,,'''!!!''''''!',,!'!'''''''!)'!)!'))!!!!)!!''!'!!'!!2",
"$34546666789888000aabccccdeffgfgfhhhiijjjkklmlklmmmmnopooqoommk@",
"[*[rrr<<<[_<_%&==#$$%=&$.=%@@%@#@+/^]^|sttuvvswxwwwxyzyABCDBzBC."};
