/* XPM */
static char * wallW_xpm[] = {
"64 64 90 1",
" 	c #FFFFFF",
".	c #FFFFFE",
"+	c #FFFFFD",
"@	c #FEFFFF",
"#	c #FFFEFF",
"$	c #FDFFFF",
"%	c #FFFFFB",
"&	c #005E29",
"*	c #006837",
"=	c #005E27",
"-	c #005E2D",
";	c #00642E",
">	c #005F2E",
",	c #F4FDF6",
"'	c #006835",
")	c #005D2A",
"!	c #006935",
"~	c #006433",
"{	c #00632F",
"]	c #005722",
"^	c #006739",
"/	c #C5E6D7",
"(	c #00592A",
"_	c #00642B",
":	c #B0CBBC",
"<	c #00612B",
"[	c #367C57",
"}	c #006435",
"|	c #005924",
"1	c #E1F2ED",
"2	c #006831",
"3	c #DFF5EA",
"4	c #6C9A7D",
"5	c #93BAA6",
"6	c #D0E4DB",
"7	c #679983",
"8	c #3B785A",
"9	c #A9CDBB",
"0	c #EFFDFC",
"a	c #8BBAA5",
"b	c #A4CFBE",
"c	c #005626",
"d	c #CCE5D9",
"e	c #005920",
"f	c #006025",
"g	c #005D31",
"h	c #3C765A",
"i	c #186A3E",
"j	c #1B6844",
"k	c #4F8369",
"l	c #428566",
"m	c #EDFDF2",
"n	c #5B9074",
"o	c #7CAB94",
"p	c #21724E",
"q	c #6FA385",
"r	c #DDF5E8",
"s	c #64977B",
"t	c #91B7A8",
"u	c #ABC8B5",
"v	c #BEDBCE",
"w	c #699782",
"x	c #3D7956",
"y	c #8AB2A5",
"z	c #E2F1EF",
"A	c #18653E",
"B	c #347E56",
"C	c #7FA490",
"D	c #569773",
"E	c #8EBCA3",
"F	c #D7E4DA",
"G	c #286D4B",
"H	c #9ABFA8",
"I	c #C7E0CD",
"J	c #4D8E67",
"K	c #B9D7CD",
"L	c #E0FCF1",
"M	c #00552E",
"N	c #97C6B5",
"O	c #006A2A",
"P	c #A3D1B7",
"Q	c #6F917B",
"R	c #78AF93",
"S	c #1E7548",
"T	c #D5F5E3",
"U	c #B3DDCB",
"V	c #618E76",
"W	c #D0ECE7",
"X	c #62A284",
"Y	c #AFC5B5",
"   #^%#     +>$       G +      dv.       A.      ${        *#   ",
"    !@+      !/       (0       oq       $&       d2        !    ",
"^]c]ece|^^c]c||||-*|||]]]]|^)|]c|cc-^|]]ececc}-|c]|]cc}}cc|||]]^",
"k#######,&#######.-.#######'+      #}       +) +    ##=m$      n",
"k       ,= #      =@..     '        ~@@      g++      fm$#     n",
"k       m= #      )+  .    !        ~        - +      fm$      n",
"^8[[[[[[{![[[[[[[}*[[[[[[[[!j[[[[[[p^[[[B[[[[*}x8[[[[8!~[[[[[[[*",
"$,,0*3,,,,,,02o,,,00,,>b,,,$$,,8p,,00,,0v~,00000,o^,000000r^000,",
"+ + ^% +++++ <$       G        6v$@ +  + A+++@@ +$;. +++++ !# .+",
"    ^%       <$       j        6v$       j       @{        '#   ",
"## @^        ~m       g        Ku        >$      0*  ###   *    ",
"'__O____''____<__;'<__;___;^;2_2___;'_______;'~__;____*'__;;__f'",
"l$.....+L~   #. . (#.     +'#+.....%' ......#| + ... .<L .   ..k",
"k       m< +    . =#      @2#       {$.     #>.+  +   <m       V",
"k       m<      . -       @'        {        >%  + + .)m       V",
"}bbbbbbbA*9999999q^b999999b}5999999H}bbbbbbb9^q9bb9999!g9999999>",
"::::*a:::::::^p::::::YgJ:::::::g(u::::::n^:::::::x*:::::::a*::::",
"#++%^        _$ . +   j    +  @d6$@      A$ #. @ $;       +* $. ",
"   +^+       _$       j  ..   @d6$     + j.+$    @;       .*#   ",
"...#}#.......>,$     #j $#####+6K$@##### ^ @@@@@@$A.       '#   ",
"~_;<!';_~~;;;!*{{{{{{;**__<{<__!2;_;{2;;2*;;;{{__!2___{_;;;*{;;~",
"G#      r_        )        *        '        )        {d       8",
"k+      ,<        ) .      2.       '        -+       &m       n",
"k       m<        )+.      2.       '        -        )m       n",
"-mmmmmmmn!,,,,,,,d*m0mmmmm,*3,,,0,,,*,m0,00,0}/,m,,,m,*l,,,,,,,g",
"xxxx'ix8x88xx*-xx8xxx8^)xxxh88x{}88x8xx8g*8888xxx>*xxx888xi*[xxx",
"  .$!. @  @@@;0 . @@@@j   @@@ #66.@..  . i .  .@@ ;       .^. ##",
"   .*        ;$       j   @    6v.@      j        ;       .!    ",
"   $^#$      _$       j      @.66        A$@@@@@@ _$$$$$$$ !$  @",
"c(cc^-((|c(|c~}|c(|cc|^>c]c|||]^*(c]cccc>*cc||cc|~!]cc|c||g'e|cc",
"g       9'        g        }        ^        -$       ~H.      g",
"k   $   ,_ ++   + (    $   2. ++ $++!@       <.      .-m $#  $ n",
"k      +,_#     . ( @@     !.       !@.      >.       >m$      n",
"g       9~        g        *        *        g        }u       A",
"|]ee2eeec(]]]!~]e]e]]]*<]]]|]c]*']c]e]]]{*]]eee]]{']]]]]ee=!=eee",
"#  +^%       ;$       p  ..    dv+       A.$     $;       %*+   ",
"   .* .$     _$       p        d6+       j       $_        '    ",
"   .* +$     _$       p        d6+       j  +    $;        !    ",
"8888!ih8hhhhh*g888888h*-8hhhhhh{{8hhhhhhg*h888888)^888888xA*8888",
"g00000,,n^,000000d~,0000000*m0000000^0000000,}d0000000'l0000000&",
"k     $ ,f      . =.      @2#      +'@      +>%. $$   -m       n",
"k       mf        e       @2   +    2@   +  +>+ $     )m       V",
"p       T~@@@  @@ )        *       .*$       |        >/ @   @@x",
"{;{{'{{{{{~;;*!{;{{;;<'*<&<{{<<'!;{~><;{}*;;'{{2{**{{{{>{{}^{{{~",
"#  #* + #  ..{0  .    i   ...  dv..      A    +  @{+....$.+*%...",
"   @^+       {$       i        6v        A       @;       +*$   ",
"   .^        {$       j        66        A       @;       %*$   ",
":::9^E:::::::2p999999:^n:uu::::~-:::::::n*:::::::G2:::::::t!:9::",
"}9bb9b99A*9bbbbb9q*Pb99b999^59bb99bH*9bbbbbbb^799bb999^^9bbbb99{",
"k#@@@@@@,_      . -.. @....' ... @..2@@.@ @@@-+ @  @@@=m.  .   n",
"k       ,_        )%       !#       2@@      >%$      fm       n",
"l+. + + m).++++++.|###+#@.@' #++#+#%^#+ + .++|%.+++++.-L++ ++ +n",
"^{_;~;;;''_;{{~{_''<_<~>;;;*;;;{~__2!;;;~{{;;!!<<<g&ff22_{;~>;;2",
"   .^%       20       g        bb        g       ,!@       *+@  ",
"   +^%       ;$       j        dv#       i       $2        *#   ",
"   +^.       _$       j       #dv        A#      $;        *#   ",
",,,,*r,,,,,,,!C,,,,,,,gK,,,,,,,xp,,,,,,,v~,,,,,,,y!,,,,,,,3*,,,,",
"^[8[[[[xg*[[8x8[[A*B[[[x[[[^p8[8x88p}p[[[8[8[}g[[[8[[[*}[[[[x[[^",
"k       ,_  + $   |        !        '       @)        =m+      n",
"k       ,f       .)%      @!        '#      @)+       fm       n",
"k       m_       .|$       '@       '       $=        =L       V",
"^|||||||^^]]]ccec)*||||||||^e]]]]]||*]|||e||e*-ceee]ee*}c|eee||*",
"    ^        ~/       g0       C4       $- @ ..@ d'        *    ",
"@# %^.     $$<0 +.$ # j   $ @$+66.$$$$$$ i  $  +#$< .    . * $$$"};
