/* XPM */
static char * card_xpm[] = {
"12 8 58 1",
" 	c #030202",
".	c #020102",
"+	c #030203",
"@	c #070607",
"#	c #060506",
"$	c #020202",
"%	c #685B65",
"&	c #72646F",
"*	c #241E1F",
"=	c #100C0D",
"-	c #FFFBFF",
";	c #060405",
">	c #3C3537",
",	c #0F0B0C",
"'	c #C3AEB9",
")	c #352C2F",
"!	c #2C2627",
"~	c #241F23",
"{	c #70636D",
"]	c #0E0C0D",
"^	c #080708",
"/	c #0D0A0B",
"(	c #282125",
"_	c #E3CDD7",
":	c #211D21",
"<	c #71636E",
"[	c #FFFEFF",
"}	c #FFFDFF",
"|	c #FFF0F9",
"1	c #FFFCFF",
"2	c #B4ABB3",
"3	c #70636E",
"4	c #FFF8FF",
"5	c #FFF9FF",
"6	c #FFF9FC",
"7	c #FFF2FD",
"8	c #FFECF7",
"9	c #AF99A0",
"0	c #DEC9D3",
"a	c #D6CDD5",
"b	c #6C5E69",
"c	c #FFF3FE",
"d	c #FFF0FA",
"e	c #FFEFF9",
"f	c #FDFAFD",
"g	c #D7D0D6",
"h	c #756873",
"i	c #483F46",
"j	c #665964",
"k	c #776974",
"l	c #70626D",
"m	c #776A75",
"n	c #796C77",
"o	c #736671",
"p	c #7A6C77",
"q	c #766873",
"r	c #6C6069",
"s	c #6D606A",
"    . +@#$%&",
"*=$-;>,')!~{",
"$ ]$^$/(_$:<",
"[[}}|}111-23",
"4567849--0ab",
"1cd-e----fgh",
"$$$$$$$$$$ij",
"hklmno<pq3rs"};
